<svg width="42" height="34" viewBox="0 0 42 34" fill="none" xmlns="http://www.w3.org/2000/svg">
<path d="M41.475 21.2554C41.3498 20.9059 41.2026 20.5646 41.0344 20.2335L33.2362 2.49229C33.1625 2.32141 33.0568 2.16615 32.925 2.03479C32.3678 1.47749 31.7063 1.03541 30.9783 0.733797C30.2502 0.432183 29.4699 0.276943 28.6819 0.276943C27.8938 0.276943 27.1135 0.432183 26.3855 0.733797C25.6574 1.03541 24.9959 1.47749 24.4387 2.03479C24.1584 2.31541 24.0007 2.69564 24 3.09229V7.77979H18V3.09229C18.0002 2.89525 17.9615 2.70011 17.8862 2.51801C17.8109 2.33592 17.7005 2.17044 17.5613 2.03104C17.0041 1.47374 16.3426 1.03166 15.6145 0.730047C14.8865 0.428433 14.1062 0.273193 13.3181 0.273193C12.5301 0.273193 11.7498 0.428433 11.0217 0.730047C10.2937 1.03166 9.63217 1.47374 9.075 2.03104C8.94316 2.1624 8.83752 2.31766 8.76375 2.48854L0.965626 20.2298C0.797415 20.5608 0.650247 20.9021 0.525001 21.2517C0.0834379 22.4872 -0.0826513 23.8043 0.0383676 25.1107C0.159387 26.4172 0.564587 27.6814 1.22558 28.8147C1.88658 29.9481 2.78739 30.9232 3.8649 31.6718C4.94242 32.4205 6.17058 32.9244 7.46335 33.1484C8.75612 33.3724 10.0822 33.3111 11.3488 32.9687C12.6154 32.6263 13.7918 32.0111 14.7956 31.1662C15.7994 30.3213 16.6063 29.2671 17.1598 28.0776C17.7134 26.888 18.0001 25.5918 18 24.2798V10.7798H24V24.2798C23.9993 25.592 24.2856 26.8885 24.8388 28.0784C25.392 29.2683 26.1986 30.3228 27.2023 31.1681C28.2059 32.0134 29.3823 32.629 30.6489 32.9718C31.9156 33.3146 33.2418 33.3763 34.5348 33.1525C35.8278 32.9287 37.0562 32.4249 38.1339 31.6764C39.2117 30.9279 40.1127 29.9527 40.7739 28.8193C41.4351 27.6858 41.8405 26.4215 41.9616 25.1149C42.0827 23.8083 41.9166 22.4911 41.475 21.2554ZM11.3831 3.98291C11.8832 3.56183 12.5072 3.31564 13.1601 3.28179C13.813 3.24794 14.459 3.4283 15 3.79541V17.5785C13.8289 16.5269 12.402 15.8016 10.8622 15.4751C9.32246 15.1487 7.72397 15.2326 6.22688 15.7185L11.3831 3.98291ZM9 30.2798C7.81331 30.2798 6.65327 29.9279 5.66658 29.2686C4.67988 28.6093 3.91085 27.6722 3.45672 26.5759C3.0026 25.4795 2.88378 24.2731 3.11529 23.1092C3.3468 21.9454 3.91825 20.8763 4.75736 20.0371C5.59648 19.198 6.66557 18.6266 7.82946 18.3951C8.99335 18.1636 10.1997 18.2824 11.2961 18.7365C12.3925 19.1906 13.3295 19.9597 13.9888 20.9464C14.6481 21.9331 15 23.0931 15 24.2798C15 25.8711 14.3679 27.3972 13.2426 28.5224C12.1174 29.6476 10.5913 30.2798 9 30.2798ZM27 3.79354C27.541 3.42642 28.187 3.24607 28.8399 3.27991C29.4928 3.31376 30.1168 3.55995 30.6169 3.98104L35.7731 15.7148C34.2759 15.2291 32.6773 15.1455 31.1375 15.4723C29.5978 15.799 28.1709 16.5247 27 17.5767V3.79354ZM33 30.2798C31.8133 30.2798 30.6533 29.9279 29.6666 29.2686C28.6799 28.6093 27.9108 27.6722 27.4567 26.5759C27.0026 25.4795 26.8838 24.2731 27.1153 23.1092C27.3468 21.9454 27.9182 20.8763 28.7574 20.0371C29.5965 19.198 30.6656 18.6266 31.8295 18.3951C32.9933 18.1636 34.1997 18.2824 35.2961 18.7365C36.3925 19.1906 37.3295 19.9597 37.9888 20.9464C38.6481 21.9331 39 23.0931 39 24.2798C39 25.8711 38.3679 27.3972 37.2426 28.5224C36.1174 29.6476 34.5913 30.2798 33 30.2798Z" fill="#007FFF"/>
</svg>
