<svg width="25" height="29" viewBox="0 0 25 29" fill="none" xmlns="http://www.w3.org/2000/svg">
<path d="M21.334 0C22.0702 0.000175519 22.667 0.597713 22.667 1.33398C22.6668 2.07011 22.0701 2.66682 21.334 2.66699H5.33398C3.86123 2.66699 2.66699 3.86123 2.66699 5.33398C2.66717 6.80659 3.86133 8 5.33398 8H18.3428V7.33398C18.3428 6.9658 18.044 6.66699 17.6758 6.66699H6.34277C5.6065 6.66699 5.00994 6.07021 5.00977 5.33398C5.00977 4.5976 5.60639 4 6.34277 4H17.6758C19.5167 4 21.0098 5.49304 21.0098 7.33398V8.33398C23.0346 8.33416 24.6756 9.97521 24.6758 12V17.4092C24.6758 19.8594 24.6759 21.8005 24.4717 23.3193C24.2615 24.8824 23.819 26.1478 22.8213 27.1455C21.8235 28.1433 20.5582 28.5857 18.9951 28.7959C17.4762 29.0001 15.5352 29 13.085 29H11.6006C9.15041 29 7.20931 29.0001 5.69043 28.7959C4.12736 28.5857 2.862 28.1433 1.86426 27.1455C0.866514 26.1478 0.424056 24.8824 0.213867 23.3193C0.00965767 21.8004 0.00974533 19.8594 0.00976562 17.4092V5.64844C0.00372325 5.54451 6.29417e-06 5.43943 0 5.33398C0 2.38847 2.38847 0 5.33398 0H21.334ZM12.3428 13.667C11.6128 13.6671 10.9297 14.0927 10.6338 14.7832L7.42383 22.2734C7.20652 22.781 7.4417 23.3684 7.94922 23.5859C8.45684 23.8035 9.04417 23.5682 9.26172 23.0605L10.1455 21H14.541L15.4238 23.0605C15.6414 23.5682 16.2297 23.8035 16.7373 23.5859C17.2446 23.3683 17.4791 22.7809 17.2617 22.2734L14.0518 14.7832C13.7558 14.0926 13.0729 13.667 12.3428 13.667ZM13.6836 19H11.002L12.3428 15.8721L13.6836 19Z" fill="url(#paint0_linear_355_1500)"/>
<defs>
<linearGradient id="paint0_linear_355_1500" x1="12.3379" y1="0" x2="12.3379" y2="29" gradientUnits="userSpaceOnUse">
<stop stop-color="#EC73B0"/>
<stop offset="1" stop-color="#007FFF"/>
</linearGradient>
</defs>
</svg>
