<svg width="40" height="35" viewBox="0 0 40 35" fill="none" xmlns="http://www.w3.org/2000/svg">
<path d="M36.5 0.5H3.5C2.70435 0.5 1.94129 0.81607 1.37868 1.37868C0.816071 1.94129 0.5 2.70435 0.5 3.5V33.5C0.499817 33.7558 0.565062 34.0074 0.689534 34.2309C0.814005 34.4544 0.993567 34.6424 1.21115 34.7769C1.42873 34.9114 1.67711 34.9881 1.93267 34.9996C2.18823 35.011 2.44248 34.957 2.67125 34.8425L8 32.1763L13.3287 34.8425C13.5371 34.9468 13.767 35.0011 14 35.0011C14.233 35.0011 14.4629 34.9468 14.6713 34.8425L20 32.1763L25.3288 34.8425C25.5371 34.9468 25.767 35.0011 26 35.0011C26.233 35.0011 26.4629 34.9468 26.6712 34.8425L32 32.1763L37.3288 34.8425C37.5575 34.957 37.8118 35.011 38.0673 34.9996C38.3229 34.9881 38.5713 34.9114 38.7888 34.7769C39.0064 34.6424 39.186 34.4544 39.3105 34.2309C39.4349 34.0074 39.5002 33.7558 39.5 33.5V3.5C39.5 2.70435 39.1839 1.94129 38.6213 1.37868C38.0587 0.81607 37.2957 0.5 36.5 0.5ZM36.5 31.0737L32.6712 29.1575C32.4629 29.0532 32.233 28.9989 32 28.9989C31.767 28.9989 31.5371 29.0532 31.3288 29.1575L26 31.8237L20.6712 29.1575C20.4629 29.0532 20.233 28.9989 20 28.9989C19.767 28.9989 19.5371 29.0532 19.3288 29.1575L14 31.8237L8.67125 29.1575C8.46286 29.0532 8.23303 28.9989 8 28.9989C7.76697 28.9989 7.53715 29.0532 7.32875 29.1575L3.5 31.0737V3.5H36.5V31.0737ZM7.32875 24.3425C7.50503 24.4308 7.69697 24.4834 7.89362 24.4975C8.09026 24.5115 8.28774 24.4867 8.47477 24.4243C8.6618 24.362 8.8347 24.2634 8.9836 24.1342C9.13249 24.0049 9.25445 23.8476 9.3425 23.6712L10.4263 21.5H17.5737L18.6575 23.6712C18.7456 23.8475 18.8677 24.0048 19.0166 24.1339C19.1655 24.2631 19.3384 24.3616 19.5254 24.4239C19.7123 24.4863 19.9098 24.5112 20.1064 24.4972C20.303 24.4832 20.495 24.4307 20.6712 24.3425C20.8475 24.2544 21.0048 24.1323 21.1339 23.9834C21.2631 23.8345 21.3616 23.6616 21.4239 23.4746C21.4863 23.2877 21.5112 23.0902 21.4972 22.8936C21.4832 22.697 21.4307 22.505 21.3425 22.3288L15.3425 10.3287C15.2181 10.0791 15.0266 9.86915 14.7894 9.72238C14.5523 9.5756 14.2789 9.49785 14 9.49785C13.7211 9.49785 13.4477 9.5756 13.2106 9.72238C12.9734 9.86915 12.7819 10.0791 12.6575 10.3287L6.6575 22.3288C6.56922 22.505 6.51656 22.697 6.50252 22.8936C6.48848 23.0903 6.51334 23.2877 6.57569 23.4748C6.63803 23.6618 6.73663 23.8347 6.86585 23.9836C6.99506 24.1325 7.15236 24.2544 7.32875 24.3425ZM14 14.3544L16.0737 18.5H11.9263L14 14.3544ZM21.5 17C21.5 16.6022 21.658 16.2206 21.9393 15.9393C22.2206 15.658 22.6022 15.5 23 15.5H26V12.5C26 12.1022 26.158 11.7206 26.4393 11.4393C26.7206 11.158 27.1022 11 27.5 11C27.8978 11 28.2794 11.158 28.5607 11.4393C28.842 11.7206 29 12.1022 29 12.5V15.5H32C32.3978 15.5 32.7794 15.658 33.0607 15.9393C33.342 16.2206 33.5 16.6022 33.5 17C33.5 17.3978 33.342 17.7794 33.0607 18.0607C32.7794 18.342 32.3978 18.5 32 18.5H29V21.5C29 21.8978 28.842 22.2794 28.5607 22.5607C28.2794 22.842 27.8978 23 27.5 23C27.1022 23 26.7206 22.842 26.4393 22.5607C26.158 22.2794 26 21.8978 26 21.5V18.5H23C22.6022 18.5 22.2206 18.342 21.9393 18.0607C21.658 17.7794 21.5 17.3978 21.5 17Z" fill="#007FFF"/>
</svg>
