<svg width="45" height="35" viewBox="0 0 45 35" fill="none" xmlns="http://www.w3.org/2000/svg">
<path d="M43.1869 20.4487C42.6964 20.0707 42.134 19.7965 41.5342 19.6427C40.9343 19.489 40.3094 19.4589 39.6975 19.5544C43.2188 15.9994 45 12.465 45 8.99999C45 4.03687 41.0081 -7.17645e-06 36.1012 -7.17645e-06C34.7993 -0.00818345 33.5113 0.268726 32.3277 0.811282C31.1441 1.35384 30.0936 2.14889 29.25 3.14062C28.4064 2.14889 27.3559 1.35384 26.1723 0.811282C24.9887 0.268726 23.7007 -0.00818345 22.3988 -7.17645e-06C17.4919 -7.17645e-06 13.5 4.03687 13.5 8.99999C13.5 11.0625 14.1075 13.0669 15.3862 15.1875C14.3389 15.4528 13.3832 15.9971 12.6206 16.7625L8.37937 21H3C2.20435 21 1.44129 21.3161 0.87868 21.8787C0.316071 22.4413 0 23.2043 0 24L0 31.5C0 32.2956 0.316071 33.0587 0.87868 33.6213C1.44129 34.1839 2.20435 34.5 3 34.5H22.5C22.6226 34.5 22.7448 34.4849 22.8638 34.455L34.8638 31.455C34.9402 31.4368 35.0149 31.4117 35.0869 31.38L42.375 28.2787L42.4575 28.2412C43.1579 27.8912 43.7578 27.3687 44.2004 26.7228C44.6431 26.0769 44.914 25.329 44.9878 24.5494C45.0615 23.7699 44.9355 22.9844 44.6218 22.267C44.308 21.5496 43.8168 20.9238 43.1944 20.4487H43.1869ZM22.3988 2.99999C23.5605 2.98299 24.701 3.31288 25.6743 3.94749C26.6475 4.58209 27.4094 5.49257 27.8625 6.56249C27.9755 6.83761 28.1678 7.07292 28.4148 7.23852C28.6619 7.40412 28.9526 7.49254 29.25 7.49254C29.5474 7.49254 29.8381 7.40412 30.0852 7.23852C30.3322 7.07292 30.5245 6.83761 30.6375 6.56249C31.0906 5.49257 31.8525 4.58209 32.8257 3.94749C33.799 3.31288 34.9395 2.98299 36.1012 2.99999C39.2981 2.99999 42 5.74687 42 8.99999C42 12.6581 39.0394 16.7962 33.4388 20.9812L31.3594 21.4594C31.5419 20.6884 31.5475 19.886 31.3759 19.1125C31.2042 18.339 30.8597 17.6144 30.3681 16.993C29.8766 16.3716 29.2508 15.8695 28.5376 15.5243C27.8244 15.1792 27.0423 14.9999 26.25 15H18.8775C17.2594 12.8175 16.5 10.8975 16.5 8.99999C16.5 5.74687 19.2019 2.99999 22.3988 2.99999ZM3 24H7.5V31.5H3V24ZM41.1431 25.5394L34.0181 28.5731L22.3125 31.5H10.5V23.1206L14.7431 18.8794C15.0207 18.5996 15.3511 18.3778 15.7152 18.2268C16.0792 18.0758 16.4696 17.9987 16.8638 18H26.25C26.8467 18 27.419 18.237 27.841 18.659C28.2629 19.081 28.5 19.6533 28.5 20.25C28.5 20.8467 28.2629 21.419 27.841 21.841C27.419 22.2629 26.8467 22.5 26.25 22.5H21C20.6022 22.5 20.2206 22.658 19.9393 22.9393C19.658 23.2206 19.5 23.6022 19.5 24C19.5 24.3978 19.658 24.7793 19.9393 25.0606C20.2206 25.342 20.6022 25.5 21 25.5H27C27.1129 25.4997 27.2254 25.4871 27.3356 25.4625L39.8981 22.5731L39.9563 22.5581C40.3397 22.4517 40.7491 22.4908 41.1054 22.668C41.4618 22.8451 41.7401 23.1479 41.8867 23.5179C42.0333 23.8879 42.0379 24.299 41.8996 24.6722C41.7613 25.0454 41.4898 25.3543 41.1375 25.5394H41.1431Z" fill="#007FFF"/>
</svg>
