<svg width="6.125rem" height="3.625rem" viewBox="0 0 98 58" fill="none" xmlns="http://www.w3.org/2000/svg">
<path fill-rule="evenodd" clip-rule="evenodd" d="M70.989 6.51669C75.7351 6.68701 79.5074 8.36789 83.2799 10.2553C95.652 16.4534 99.7898 26.0701 91.3119 35.5202C78.1286 50.1751 47.4213 59.7663 23.6102 55.3399C18.3368 54.3644 11.1975 53.5046 5.96476 48.7406C1.09706 44.3111 1.29988 39.0452 3.53091 34.1701C5.80251 29.1716 10.1834 24.5712 13.672 21.614C28.9241 8.71193 59.4689 -3.01432 87.0931 3.16767C87.661 3.28678 88.229 3.08194 88.3912 2.71017C88.5535 2.3384 88.2693 1.93976 87.742 1.82064C59.3065 -4.54157 27.7881 7.43649 12.0898 20.7146C7.74943 24.402 2.07076 30.5574 0.448195 36.9261C-0.647038 41.279 0.123523 45.7286 4.3422 49.5993C9.89949 54.6739 17.4851 55.6678 23.0829 56.7068C47.6648 61.2786 79.4263 51.4069 93.0153 36.2714C102.142 26.1143 97.7615 15.7682 84.4564 9.10605C80.4 7.05821 76.2623 5.2885 71.1107 5.10403C70.5428 5.08394 70.0562 5.38413 70.0562 5.774C70.0156 6.16388 70.4617 6.4966 70.989 6.51669Z" fill="#007FFF"/>
</svg>
