<svg width="14" height="13" viewBox="0 0 14 13" fill="none" xmlns="http://www.w3.org/2000/svg">
<path d="M6.9999 1.45947C8.6499 1.45947 8.8749 1.45947 9.5499 1.45947C10.1499 1.45947 10.4499 1.60947 10.6749 1.68447C10.9749 1.83447 11.1999 1.90947 11.4249 2.13447C11.6499 2.35947 11.7999 2.58447 11.8749 2.88447C11.9499 3.10947 12.0249 3.40947 12.0999 4.00947C12.0999 4.68447 12.0999 4.83447 12.0999 6.55947C12.0999 8.28447 12.0999 8.43447 12.0999 9.10947C12.0999 9.70947 11.9499 10.0095 11.8749 10.2345C11.7249 10.5345 11.6499 10.7595 11.4249 10.9845C11.1999 11.2095 10.9749 11.3595 10.6749 11.4345C10.4499 11.5095 10.1499 11.5845 9.5499 11.6595C8.8749 11.6595 8.7249 11.6595 6.9999 11.6595C5.2749 11.6595 5.1249 11.6595 4.4499 11.6595C3.8499 11.6595 3.5499 11.5095 3.3249 11.4345C3.0249 11.2845 2.7999 11.2095 2.5749 10.9845C2.3499 10.7595 2.1999 10.5345 2.1249 10.2345C2.0499 10.0095 1.9749 9.70947 1.8999 9.10947C1.8999 8.43447 1.8999 8.28447 1.8999 6.55947C1.8999 4.83447 1.8999 4.68447 1.8999 4.00947C1.8999 3.40947 2.0499 3.10947 2.1249 2.88447C2.2749 2.58447 2.3499 2.35947 2.5749 2.13447C2.7999 1.90947 3.0249 1.75947 3.3249 1.68447C3.5499 1.60947 3.8499 1.53447 4.4499 1.45947C5.1249 1.45947 5.3499 1.45947 6.9999 1.45947ZM6.9999 0.334473C5.2749 0.334473 5.1249 0.334473 4.4499 0.334473C3.7749 0.334473 3.3249 0.484473 2.9499 0.634473C2.5749 0.784473 2.1999 1.00947 1.8249 1.38447C1.4499 1.75947 1.2999 2.05947 1.0749 2.50947C0.924903 2.88447 0.849902 3.33447 0.774902 4.00947C0.774902 4.68447 0.774902 4.90947 0.774902 6.55947C0.774902 8.28447 0.774902 8.43447 0.774902 9.10947C0.774902 9.78447 0.924903 10.2345 1.0749 10.6095C1.2249 10.9845 1.4499 11.3595 1.8249 11.7345C2.1999 12.1095 2.4999 12.2595 2.9499 12.4845C3.3249 12.6345 3.7749 12.7095 4.4499 12.7845C5.1249 12.7845 5.3499 12.7845 6.9999 12.7845C8.6499 12.7845 8.8749 12.7845 9.5499 12.7845C10.2249 12.7845 10.6749 12.6345 11.0499 12.4845C11.4249 12.3345 11.7999 12.1095 12.1749 11.7345C12.5499 11.3595 12.6999 11.0595 12.9249 10.6095C13.0749 10.2345 13.1499 9.78447 13.2249 9.10947C13.2249 8.43447 13.2249 8.20947 13.2249 6.55947C13.2249 4.90947 13.2249 4.68447 13.2249 4.00947C13.2249 3.33447 13.0749 2.88447 12.9249 2.50947C12.7749 2.13447 12.5499 1.75947 12.1749 1.38447C11.7999 1.00947 11.4999 0.859473 11.0499 0.634473C10.6749 0.484473 10.2249 0.409473 9.5499 0.334473C8.8749 0.334473 8.7249 0.334473 6.9999 0.334473Z" fill="white"/>
<path d="M6.9999 3.33447C5.1999 3.33447 3.7749 4.75947 3.7749 6.55947C3.7749 8.35947 5.1999 9.78447 6.9999 9.78447C8.7999 9.78447 10.2249 8.35947 10.2249 6.55947C10.2249 4.75947 8.7999 3.33447 6.9999 3.33447ZM6.9999 8.65947C5.8749 8.65947 4.8999 7.75947 4.8999 6.55947C4.8999 5.43447 5.7999 4.45947 6.9999 4.45947C8.1249 4.45947 9.0999 5.35947 9.0999 6.55947C9.0999 7.68447 8.1249 8.65947 6.9999 8.65947Z" fill="white"/>
<path d="M10.2999 4.00947C10.7141 4.00947 11.0499 3.67369 11.0499 3.25947C11.0499 2.84526 10.7141 2.50947 10.2999 2.50947C9.88569 2.50947 9.5499 2.84526 9.5499 3.25947C9.5499 3.67369 9.88569 4.00947 10.2999 4.00947Z" fill="white"/>
</svg>
