<svg width="28" height="22" viewBox="0 0 28 22" fill="none" xmlns="http://www.w3.org/2000/svg">
<path fill-rule="evenodd" clip-rule="evenodd" d="M6.39852 11.875L24.7188 11.875C25.3918 11.875 25.9375 12.4346 25.9375 13.125C25.9375 13.8154 25.3918 14.375 24.7188 14.375H23.5C23.3612 14.375 23.0863 14.4616 22.7905 14.9167C22.5003 15.3631 22.2812 16.0518 22.2812 16.875C22.2812 17.6982 22.5003 18.3869 22.7905 18.8333C23.0863 19.2884 23.3612 19.375 23.5 19.375H24.7188C25.3918 19.375 25.9375 19.9346 25.9375 20.625C25.9375 21.3154 25.3918 21.875 24.7188 21.875L6.39851 21.875C5.86391 21.875 5.40263 21.875 5.02085 21.8483C4.61887 21.8202 4.21679 21.7583 3.81957 21.5896C2.92368 21.2089 2.2119 20.4789 1.84082 19.5601C1.67628 19.1527 1.61595 18.7403 1.58852 18.328C1.56247 17.9364 1.56249 17.4633 1.5625 16.915V16.835C1.56249 16.2867 1.56247 15.8136 1.58852 15.422C1.61595 15.0097 1.67628 14.5973 1.84082 14.1899C2.2119 13.2711 2.92368 12.5411 3.81957 12.1605C4.21679 11.9917 4.61887 11.9298 5.02085 11.9017C5.40263 11.875 5.86392 11.875 6.39852 11.875ZM20.3206 19.375C20.0101 18.6249 19.8437 17.7656 19.8437 16.875C19.8437 15.9844 20.0101 15.1251 20.3206 14.375H6.4375C5.85296 14.375 5.47559 14.3757 5.18677 14.3959C4.9089 14.4153 4.80307 14.4486 4.75236 14.4702C4.45373 14.597 4.21647 14.8404 4.09277 15.1466C4.07177 15.1987 4.03933 15.3072 4.02037 15.5922C4.00066 15.8884 4 16.2755 4 16.875C4 17.4745 4.00066 17.8616 4.02037 18.1578C4.03933 18.4428 4.07177 18.5513 4.09277 18.6034C4.21647 18.9096 4.45373 19.153 4.75236 19.2799C4.80307 19.3014 4.9089 19.3347 5.18677 19.3541C5.47559 19.3743 5.85296 19.375 6.4375 19.375H20.3206Z" fill="url(#paint0_linear_355_1957)"/>
<path fill-rule="evenodd" clip-rule="evenodd" d="M0 3.4375C0 2.74714 0.559644 2.1875 1.25 2.1875H3.125C3.81536 2.1875 4.375 2.74714 4.375 3.4375C4.375 4.12786 3.81536 4.6875 3.125 4.6875H1.25C0.559644 4.6875 0 4.12786 0 3.4375Z" fill="url(#paint1_linear_355_1957)"/>
<path fill-rule="evenodd" clip-rule="evenodd" d="M23.125 3.4375C23.125 2.74714 23.6846 2.1875 24.375 2.1875H26.25C26.9404 2.1875 27.5 2.74714 27.5 3.4375C27.5 4.12786 26.9404 4.6875 26.25 4.6875H24.375C23.6846 4.6875 23.125 4.12786 23.125 3.4375Z" fill="url(#paint2_linear_355_1957)"/>
<path d="M19.3133 1.96785e-06H20.6867C21.5178 -4.02771e-05 22.2339 -7.66711e-05 22.8073 0.0770153C23.4219 0.159639 24.0109 0.345962 24.4887 0.823771C24.9666 1.30158 25.1529 1.89066 25.2355 2.5052C25.3126 3.07864 25.3126 3.79471 25.3125 4.6258V4.74922C25.3126 5.5803 25.3126 6.29638 25.2355 6.86981C25.1529 7.48436 24.9666 8.07344 24.4887 8.55125C24.0109 9.02906 23.4219 9.21538 22.8073 9.298C22.2339 9.3751 21.5178 9.37506 20.6867 9.37501H19.3133C18.4822 9.37506 17.7661 9.3751 17.1927 9.298C16.5782 9.21538 15.9891 9.02906 15.5113 8.55125C15.0335 8.07344 14.8471 7.48436 14.7645 6.86981C14.6874 6.2964 14.6875 5.58034 14.6875 4.74929V4.62579C14.6875 4.19799 14.6875 3.80059 14.698 3.4375H14.6875C14.6875 2.91974 14.2678 2.5 13.75 2.5C13.2322 2.5 12.8125 2.91974 12.8125 3.4375H12.8021C12.8126 3.80061 12.8125 4.19797 12.8125 4.6258V4.74922C12.8126 5.5803 12.8126 6.29638 12.7355 6.86981C12.6529 7.48436 12.4666 8.07344 11.9887 8.55125C11.5109 9.02906 10.9219 9.21538 10.3073 9.298C9.73388 9.3751 9.0178 9.37506 8.18672 9.37501H6.8133C5.98221 9.37506 5.26614 9.3751 4.6927 9.298C4.07816 9.21538 3.48908 9.02906 3.01127 8.55125C2.53346 8.07344 2.34714 7.48436 2.26452 6.86981C2.18742 6.29641 2.18746 5.58038 2.1875 4.74935V4.62579C2.18746 3.79476 2.18742 3.07861 2.26452 2.5052C2.34714 1.89066 2.53346 1.30158 3.01127 0.823771C3.48908 0.345962 4.07816 0.159639 4.6927 0.0770153C5.26611 -7.66711e-05 5.98214 -4.02771e-05 6.81317 1.96785e-06H8.18673C9.01775 -4.02771e-05 9.73391 -7.66711e-05 10.3073 0.0770153C10.9219 0.159639 11.5109 0.345962 11.9887 0.82377C12.0717 0.906725 12.1459 0.993034 12.2122 1.08225C12.6542 0.79311 13.1825 0.625004 13.75 0.625004C14.3176 0.625004 14.8458 0.793112 15.2878 1.08225C15.3541 0.993037 15.4283 0.906727 15.5113 0.823771C15.9891 0.345963 16.5782 0.159639 17.1927 0.0770153C17.7661 -7.66711e-05 18.4823 -4.02771e-05 19.3133 1.96785e-06Z" fill="url(#paint3_linear_355_1957)"/>
<defs>
<linearGradient id="paint0_linear_355_1957" x1="13.75" y1="11.875" x2="13.75" y2="21.875" gradientUnits="userSpaceOnUse">
<stop stop-color="#EC73B0"/>
<stop offset="1" stop-color="#007FFF"/>
</linearGradient>
<linearGradient id="paint1_linear_355_1957" x1="2.1875" y1="2.1875" x2="2.1875" y2="4.6875" gradientUnits="userSpaceOnUse">
<stop stop-color="#EC73B0"/>
<stop offset="1" stop-color="#007FFF"/>
</linearGradient>
<linearGradient id="paint2_linear_355_1957" x1="25.3125" y1="2.1875" x2="25.3125" y2="4.6875" gradientUnits="userSpaceOnUse">
<stop stop-color="#EC73B0"/>
<stop offset="1" stop-color="#007FFF"/>
</linearGradient>
<linearGradient id="paint3_linear_355_1957" x1="13.75" y1="0" x2="13.75" y2="9.37501" gradientUnits="userSpaceOnUse">
<stop stop-color="#EC73B0"/>
<stop offset="1" stop-color="#007FFF"/>
</linearGradient>
</defs>
</svg>
