<svg width="88" height="34" viewBox="0 0 88 34" fill="none" xmlns="http://www.w3.org/2000/svg">
<path d="M37.6115 25.7019L42.2034 20.3507C42.4309 20.0854 42.2433 19.6721 41.8915 19.6721H38.3198L35.3226 23.2388L24.5231 11.7779H20.1658L33.2307 25.6714L26.9855 32.6897H31.507L35.2945 28.219L39.2227 32.6897H42.3418C42.8272 32.6897 43.0899 32.1192 42.7733 31.7505L37.6115 25.7019Z" fill="#007FFF"/>
<path d="M52.8223 31.8209C52.1376 31.187 51.6169 30.4497 51.2581 29.6161C50.7492 29.8181 50.1981 29.9167 49.6095 29.9167C48.5354 29.9167 47.6466 29.5551 46.9407 28.8272C46.2324 28.1016 45.8806 27.2 45.8806 26.1246C45.8806 25.1454 46.2418 24.3001 46.9688 23.5934C47.6935 22.8842 48.5447 22.532 49.525 22.532C50.2989 22.532 50.9204 22.6001 51.3895 22.7363C51.7764 22.0319 52.3111 21.3369 52.9935 20.6536C53.1319 20.5151 53.2726 20.3812 53.418 20.2568C52.2501 19.6791 51.0447 19.3903 49.8088 19.3903C47.7544 19.3903 46.0026 20.022 44.5509 21.2852C43.0242 22.626 42.262 24.3048 42.262 26.3241C42.262 28.3036 43.043 29.9448 44.6072 31.248C46.0589 32.4737 47.7919 33.0865 49.8088 33.0865C50.9978 33.0865 52.1938 32.8471 53.3969 32.3704C53.1929 32.199 53.0029 32.0158 52.8223 31.8209Z" fill="#007FFF"/>
<path d="M70.2587 11.8648C69.2902 11.8648 68.5022 12.6514 68.5022 13.6235V30.8982C68.5022 31.889 69.3042 32.6897 70.2916 32.6897C71.2836 32.6897 72.0856 31.882 72.0809 30.8888L72.0106 13.6141C72.0106 12.6467 71.2249 11.8648 70.2587 11.8648Z" fill="#007FFF"/>
<path d="M85.7674 21.257C84.3345 19.975 82.6108 19.334 80.5963 19.334C78.5795 19.334 76.8558 19.975 75.4229 21.257C73.936 22.5978 73.1902 24.2673 73.1902 26.2678C73.1902 28.1909 73.9548 29.8321 75.4791 31.1917C76.9496 32.4925 78.6545 33.1429 80.5963 33.1429C82.5733 33.1429 84.3017 32.4878 85.7815 31.1752C87.2613 29.865 88 28.2284 88 26.2678C88 24.2673 87.2566 22.5978 85.7674 21.257ZM83.2651 28.8272C82.5029 29.5175 81.6118 29.8603 80.5963 29.8603C79.5785 29.8603 78.692 29.5199 77.9392 28.8413C77.1278 28.1439 76.7244 27.2939 76.7244 26.296C76.7244 25.2393 77.1043 24.3565 77.8689 23.6497C78.6311 22.9429 79.541 22.5884 80.5963 22.5884C81.6516 22.5884 82.5498 22.9429 83.2956 23.6497C84.039 24.3565 84.4119 25.23 84.4119 26.2678C84.4119 27.2845 84.0296 28.1392 83.2651 28.8272Z" fill="#E52D8A"/>
<path d="M18.8173 23.4079H29.4926L26.0874 19.7872H18.8173V15.4855H22.0419L18.557 11.7779L18.5476 11.7685L15.0885 11.7779V32.6897H25.4143L28.8383 28.8413H18.8173V23.4079Z" fill="#007FFF"/>
<path d="M12.2555 10.0169C12.1593 10.0145 12.0608 10.0122 11.9647 10.0122L10.9445 12.0996C9.08715 9.90418 6.67865 10.0145 6.67865 10.0145L7.6777 7.96938L7.52291 7.79327L7.34468 7.59134L7.47366 7.72988L9.37795 9.78677L12.2555 10.0169Z" fill="#007FFF"/>
<path d="M10.9445 12.102C8.22412 11.4492 6.67865 10.0145 6.67865 10.0145C6.67865 10.0145 9.08949 9.90653 10.9445 12.102Z" fill="#E52D8A"/>
<path d="M13.6157 10.0098C13.5946 10.0521 13.5454 10.0404 13.5079 10.0404C13.0904 10.031 12.673 10.0239 12.2555 10.0169L9.37801 9.78678L7.47372 7.72988L7.10084 7.25792C7.09146 7.23679 7.07739 7.21331 7.05863 7.18983C6.98827 7.10764 6.92026 7.02546 6.85225 6.94093L6.75844 6.82353C6.72327 6.77892 6.68809 6.7343 6.65291 6.68969C6.62712 6.65682 6.58021 6.6216 6.60132 6.57698C6.62243 6.53002 6.67636 6.54411 6.71858 6.54411C8.07409 6.56524 9.42726 6.58637 10.7828 6.60516C10.8766 6.60516 10.9633 6.64742 11.022 6.72256C11.8709 7.78154 12.7199 8.83816 13.5665 9.89714C13.5946 9.93001 13.6368 9.96288 13.6157 10.0098Z" fill="#E52D8A"/>
<path d="M64.8484 29.17C65.885 29.649 66.0492 31.0508 65.158 31.7622C64.9047 31.9642 64.6397 32.1544 64.363 32.3305C63.4202 32.9339 61.9709 33.1969 60.0103 33.1218C57.2032 33.1969 55.1488 32.5183 53.8496 31.0836C52.5316 29.8767 51.9289 28.2167 52.0414 26.1034C51.8538 24.5936 52.5128 23.0862 54.0184 21.5764C55.5264 20.0666 57.4095 19.3128 59.6703 19.3128C62.0061 19.2377 63.9104 20.0102 65.3784 21.6327C66.5393 22.9148 67.2429 24.3494 67.4844 25.9367C67.59 26.6176 67.067 27.2352 66.3775 27.2352H55.3716C55.8242 29.1982 57.3673 30.2548 60.0057 30.4051C61.3401 30.4051 62.4071 30.0693 63.2068 29.3977C63.6688 29.015 64.3044 28.9187 64.8484 29.17ZM63.9667 24.9764C63.2115 23.3163 61.8185 22.4099 59.7829 22.2596C57.5972 22.4099 56.0892 23.3163 55.2614 24.9764H63.9667Z" fill="#E52D8A"/>
<path d="M6.94838 2.90463C6.92024 2.97507 6.90617 3.03847 6.8921 3.10187C6.87803 3.16527 6.87099 3.22632 6.86396 3.28737C6.85223 3.40712 6.85458 3.52217 6.86396 3.63253C6.88506 3.85325 6.94369 4.05753 7.02812 4.25007C7.11489 4.44261 7.22746 4.62106 7.3799 4.78308C7.45494 4.86526 7.54171 4.9404 7.63786 5.01319C7.68711 5.04841 7.73871 5.08363 7.79499 5.1165C7.85128 5.14937 7.91225 5.1799 7.98261 5.20573C8.01075 5.13529 8.02716 5.07189 8.04123 5.00614C8.05531 4.94274 8.06469 4.8817 8.06938 4.82065C8.0811 4.7009 8.0811 4.58584 8.06938 4.47548C8.04827 4.25477 7.98964 4.05048 7.90287 3.85794C7.8161 3.6654 7.70119 3.48695 7.55109 3.32493C7.47605 3.24275 7.38928 3.16761 7.29312 3.09482C7.24388 3.0596 7.19228 3.02438 7.136 2.99151C7.07737 2.96098 7.01874 2.93046 6.94838 2.90463Z" fill="#007FFF"/>
<path d="M5.58817 3.98004C5.57879 4.05518 5.57879 4.12092 5.58114 4.18667C5.58348 4.25241 5.59052 4.31347 5.59755 4.37217C5.61631 4.49192 5.64446 4.60227 5.67963 4.70794C5.75233 4.91691 5.85787 5.10241 5.98685 5.26912C6.11584 5.43583 6.26827 5.58142 6.45589 5.70351C6.5497 5.76456 6.65054 5.81857 6.76076 5.86553C6.81704 5.88901 6.87567 5.91014 6.93665 5.92658C6.99997 5.94536 7.06563 5.95945 7.13833 5.96885C7.14771 5.89371 7.14771 5.82796 7.14771 5.76222C7.14537 5.69647 7.13833 5.63542 7.1313 5.57437C7.11254 5.45462 7.0844 5.34426 7.04922 5.2386C6.97652 5.02962 6.87098 4.84413 6.742 4.67976C6.61301 4.5154 6.45823 4.36747 6.27296 4.24537C6.17916 4.18432 6.07831 4.13032 5.96809 4.08336C5.91181 4.05988 5.85318 4.03874 5.7922 4.0223C5.72654 4.00352 5.66087 3.98709 5.58817 3.98004Z" fill="#007FFF"/>
<path d="M3.96533 3.2357C3.9536 3.30849 3.94891 3.37659 3.94891 3.44233C3.94891 3.50808 3.95126 3.56913 3.95829 3.63018C3.97002 3.74993 3.99347 3.86263 4.0263 3.9683C4.08962 4.18197 4.18812 4.36982 4.31007 4.54122C4.43202 4.71263 4.57977 4.86525 4.76034 4.9944C4.84946 5.06014 4.9503 5.1165 5.05818 5.16815C5.11212 5.19398 5.17075 5.21746 5.23172 5.23625C5.2927 5.25738 5.35836 5.27382 5.43106 5.28556C5.44514 5.21277 5.44748 5.14467 5.44748 5.07893C5.44748 5.01318 5.44514 4.95213 5.4381 4.89108C5.42637 4.77133 5.40292 4.65863 5.37009 4.55296C5.30677 4.34164 5.20827 4.15145 5.08632 3.98004C4.96437 3.80863 4.81663 3.65601 4.63605 3.52686C4.54693 3.46112 4.44609 3.40476 4.33821 3.35311C4.28427 3.32728 4.22564 3.3038 4.16467 3.28501C4.10369 3.26623 4.03803 3.24744 3.96533 3.2357Z" fill="#007FFF"/>
<path d="M1.16284 10.9068C1.2074 10.8481 1.25431 10.7988 1.30355 10.7542C1.35046 10.7096 1.39971 10.6697 1.44661 10.6344C1.54276 10.5616 1.64126 10.5029 1.7421 10.456C1.94144 10.3597 2.14547 10.3034 2.35419 10.2752C2.56291 10.2494 2.77398 10.2541 2.99208 10.2987C3.09996 10.3221 3.21018 10.355 3.32275 10.3996C3.37903 10.4231 3.43532 10.4489 3.4916 10.4818C3.54789 10.5147 3.60652 10.5476 3.66515 10.5945C3.62059 10.6532 3.57368 10.7025 3.52444 10.7471C3.47753 10.7918 3.42828 10.8317 3.38138 10.8669C3.28523 10.9397 3.18673 10.9984 3.08589 11.0477C2.88655 11.144 2.68252 11.2003 2.4738 11.2261C2.26508 11.252 2.05401 11.2473 1.83591 11.2027C1.72803 11.1792 1.61781 11.1463 1.50524 11.1017C1.44895 11.0782 1.39267 11.0524 1.33639 11.0219C1.2801 10.9866 1.22147 10.9514 1.16284 10.9068Z" fill="#007FFF"/>
<path d="M3.50098 8.4977C3.56195 8.45309 3.62058 8.42257 3.67921 8.39204C3.73784 8.36387 3.79412 8.34039 3.85041 8.31925C3.96298 8.27699 4.07555 8.24881 4.18342 8.23238C4.40152 8.19716 4.61494 8.20185 4.82131 8.23707C5.02769 8.27229 5.22937 8.33804 5.42637 8.4437C5.52486 8.49536 5.61867 8.55876 5.71248 8.63624C5.75938 8.67381 5.80629 8.71608 5.85084 8.76304C5.8954 8.81 5.93996 8.85931 5.98452 8.92036C5.92354 8.96497 5.86491 8.99784 5.80628 9.02602C5.74766 9.05419 5.69137 9.08003 5.63509 9.09881C5.52252 9.14108 5.40995 9.16925 5.30207 9.18569C5.08397 9.22091 4.87056 9.21621 4.66418 9.18099C4.45781 9.14577 4.25612 9.08003 4.06147 8.97436C3.96298 8.92271 3.86917 8.85931 3.77536 8.78182C3.72846 8.74425 3.68156 8.70199 3.637 8.65503C3.58775 8.60807 3.54319 8.55875 3.50098 8.4977Z" fill="#007FFF"/>
<path d="M2.46442 6.58403C2.53477 6.5582 2.60044 6.54412 2.66376 6.53238C2.72708 6.52064 2.7904 6.51359 2.84903 6.5089C2.96863 6.50185 3.08354 6.5042 3.19377 6.51829C3.41421 6.54646 3.6159 6.60986 3.80586 6.69909C3.99582 6.79066 4.1717 6.91041 4.32883 7.06539C4.40857 7.14287 4.48127 7.22975 4.55162 7.33072C4.5868 7.38003 4.61963 7.43403 4.65012 7.49038C4.68061 7.54909 4.70875 7.60779 4.73455 7.68058C4.66419 7.7064 4.59853 7.72049 4.53521 7.73223C4.47189 7.74397 4.40857 7.75102 4.34994 7.75572C4.23033 7.76276 4.11542 7.76041 4.0052 7.74632C3.78475 7.71814 3.58307 7.65475 3.39311 7.56317C3.20549 7.4716 3.0296 7.35185 2.87013 7.19688C2.7904 7.11939 2.7177 7.03251 2.64734 6.93154C2.61216 6.88224 2.57933 6.82823 2.54884 6.77188C2.51601 6.71553 2.48787 6.65448 2.46442 6.58403Z" fill="#007FFF"/>
<path d="M0.553101 7.47395C0.61642 7.43638 0.67974 7.40821 0.73837 7.38473C0.799344 7.36125 0.857974 7.34246 0.916604 7.32603C1.03386 7.2955 1.14643 7.27672 1.25665 7.26967C1.4771 7.25324 1.68817 7.27672 1.8922 7.33072C2.09623 7.38473 2.29088 7.46691 2.47615 7.58901C2.56761 7.65006 2.65907 7.72285 2.74584 7.80503C2.78805 7.84729 2.83027 7.89425 2.87248 7.94356C2.91235 7.99522 2.95456 8.04688 2.98974 8.11262C2.92642 8.15019 2.8631 8.17837 2.80447 8.20185C2.74349 8.22533 2.68487 8.24412 2.62624 8.26055C2.50898 8.29108 2.39641 8.30986 2.28619 8.31691C2.06574 8.33334 1.85467 8.30986 1.65064 8.25585C1.44661 8.20185 1.25196 8.11967 1.06669 7.99522C0.975233 7.93417 0.883771 7.86138 0.796999 7.7792C0.754786 7.73693 0.712573 7.69232 0.670359 7.64067C0.632837 7.5937 0.590623 7.5397 0.553101 7.47395Z" fill="#E52D8A"/>
<path d="M2.12903 3.32962C2.20407 3.32727 2.26974 3.33197 2.3354 3.33901C2.39872 3.34606 2.4597 3.3578 2.52067 3.37189C2.63793 3.40006 2.74581 3.43763 2.84665 3.48224C3.04834 3.57382 3.22423 3.69357 3.37901 3.83445C3.53379 3.97768 3.66746 4.14205 3.773 4.33694C3.82459 4.43556 3.87149 4.53887 3.90667 4.65627C3.92543 4.71497 3.9395 4.77368 3.95357 4.83707C3.9653 4.90047 3.97703 4.96857 3.97703 5.04136C3.90198 5.04605 3.83632 5.03901 3.77065 5.03196C3.70733 5.02492 3.64401 5.01318 3.58538 4.99909C3.46812 4.97091 3.36024 4.93334 3.25706 4.88873C3.05537 4.79716 2.87949 4.67741 2.72705 4.53418C2.57461 4.39094 2.44094 4.22423 2.3354 4.02934C2.28146 3.93072 2.23691 3.82506 2.20173 3.71C2.18297 3.6513 2.1689 3.5926 2.15483 3.52921C2.14075 3.4705 2.13137 3.40241 2.12903 3.32962Z" fill="#E52D8A"/>
<path d="M0.159119 12.5575C0.191951 12.4894 0.229474 12.433 0.266997 12.3814C0.304519 12.3297 0.344387 12.2804 0.384255 12.2358C0.463991 12.1466 0.548418 12.0691 0.637535 12.001C0.813423 11.8672 1.00338 11.7709 1.20272 11.7028C1.40206 11.6347 1.61078 11.5971 1.83123 11.5971C1.94145 11.5971 2.05637 11.6089 2.17597 11.63C2.2346 11.6418 2.29557 11.6558 2.35655 11.677C2.41752 11.6958 2.48084 11.7192 2.54885 11.7545C2.51602 11.8226 2.48084 11.8789 2.44332 11.9329C2.4058 11.9869 2.36593 12.0339 2.32606 12.0785C2.24633 12.1677 2.1619 12.2452 2.07278 12.3133C1.89689 12.4471 1.70693 12.5434 1.50759 12.6115C1.30825 12.6772 1.09954 12.7148 0.876744 12.7148C0.76652 12.7148 0.651606 12.7031 0.532003 12.6819C0.473373 12.6702 0.412398 12.6561 0.351423 12.6373C0.290448 12.6115 0.227129 12.5904 0.159119 12.5575Z" fill="#E52D8A"/>
<path d="M0.07702 9.48858C-0.056655 9.67878 -0.0120966 9.94176 0.177863 10.0779L0.236492 10.1202L0.194279 10.1789C0.0606038 10.3691 0.105162 10.6321 0.295121 10.7683C0.485081 10.9021 0.747741 10.8575 0.883761 10.6673L0.925974 10.6086L1.41143 9.91828L1.00805 9.63417L0.721943 9.43223L0.663314 9.38997C0.4757 9.25378 0.21304 9.29839 0.07702 9.48858Z" fill="#F41690"/>
<path d="M2.17361 4.66333C1.94378 4.70559 1.79135 4.92396 1.83356 5.15407L1.84529 5.22451L1.77493 5.23625C1.5451 5.27851 1.39267 5.49689 1.43488 5.727C1.47709 5.95711 1.69519 6.10973 1.92502 6.06746L1.99538 6.05572L2.82557 5.90545L2.73645 5.4194L2.67313 5.07424L2.66141 5.00379C2.62154 4.77603 2.40344 4.62341 2.17361 4.66333Z" fill="#F41690"/>
<path d="M6.01737 2.04054C5.78989 1.99123 5.56476 2.13681 5.51785 2.36457L5.50378 2.43502L5.43343 2.42093C5.20594 2.37162 4.98081 2.5172 4.9339 2.74496C4.88465 2.97272 5.03006 3.19813 5.25754 3.2451L5.32789 3.25919L6.1534 3.43529L6.25658 2.95159L6.32928 2.60877L6.34335 2.53833C6.39026 2.31292 6.24486 2.08985 6.01737 2.04054Z" fill="#F41690"/>
<path d="M4.93858 5.41471C4.72751 5.46402 4.59618 5.67534 4.64543 5.88667L4.6595 5.95241L4.59384 5.9665C4.38277 6.01581 4.25144 6.22714 4.30069 6.43846C4.34994 6.64979 4.561 6.78128 4.77207 6.73197L4.83773 6.71788L5.60461 6.53942L5.49907 6.09095L5.42403 5.77161L5.40996 5.70586C5.36305 5.49689 5.14964 5.3654 4.93858 5.41471Z" fill="#F41690"/>
<path d="M3.67919 10.092C3.61587 10.3151 3.74486 10.5499 3.96765 10.6133L4.03566 10.6321L4.0169 10.7002C3.95358 10.9232 4.08256 11.1581 4.30535 11.2214C4.52815 11.2848 4.76266 11.1557 4.82598 10.9326L4.84475 10.8645L5.07692 10.0521L4.60319 9.91593L4.26549 9.81966L4.19748 9.80087C3.97703 9.73748 3.74486 9.86662 3.67919 10.092Z" fill="#F41690"/>
<path d="M2.10795 8.93209C2.00945 9.09881 2.06339 9.31248 2.2299 9.4111L2.28149 9.44162L2.251 9.49328C2.15251 9.65999 2.20644 9.87367 2.37295 9.97228C2.53946 10.0709 2.75287 10.0169 2.85137 9.85018L2.88185 9.79853L3.23832 9.19742L2.88655 8.98845L2.63796 8.84052L2.58636 8.80999C2.41986 8.71137 2.20645 8.76773 2.10795 8.93209Z" fill="#F41690"/>
<path d="M9.00508 2.2683C9.05668 2.3223 9.09654 2.3763 9.13172 2.43031C9.1669 2.48432 9.19973 2.53832 9.22553 2.59233C9.28181 2.70034 9.32403 2.806 9.35451 2.91166C9.41783 3.12534 9.44129 3.33666 9.4319 3.54564C9.42487 3.75461 9.385 3.96359 9.30526 4.17257C9.2654 4.27588 9.21615 4.3792 9.15048 4.48251C9.11765 4.53417 9.08247 4.58583 9.04261 4.63514C9.00274 4.68679 8.95818 4.7361 8.90189 4.78776C8.8503 4.73376 8.81043 4.67975 8.77526 4.62574C8.74008 4.57174 8.70725 4.51773 8.6791 4.46373C8.62282 4.35572 8.58061 4.25006 8.55012 4.14205C8.4868 3.92837 8.46569 3.71705 8.47273 3.50807C8.48211 3.29909 8.51963 3.09012 8.59937 2.88114C8.63924 2.77782 8.68848 2.67451 8.7518 2.57119C8.78464 2.51954 8.81981 2.46788 8.85968 2.41857C8.90424 2.37161 8.9488 2.31995 9.00508 2.2683Z" fill="#007FFF"/>
<path d="M10.6679 2.7567C10.7054 2.82244 10.7288 2.88349 10.7523 2.94454C10.7734 3.00559 10.7922 3.0643 10.8062 3.123C10.8344 3.2404 10.8508 3.35545 10.8555 3.46581C10.8649 3.68653 10.8367 3.89785 10.7804 4.09979C10.7218 4.30172 10.635 4.49426 10.5084 4.67741C10.4451 4.76899 10.3724 4.85586 10.2856 4.94039C10.2434 4.98266 10.1965 5.02492 10.1449 5.06484C10.0933 5.10476 10.0394 5.14467 9.97369 5.17989C9.93617 5.11415 9.91037 5.0531 9.88926 4.99205C9.86816 4.931 9.8494 4.8723 9.83532 4.8136C9.80718 4.6962 9.79076 4.58114 9.78607 4.47078C9.77669 4.25006 9.80484 4.03874 9.86347 3.83681C9.9221 3.63487 10.0089 3.44233 10.1355 3.25918C10.1988 3.16761 10.2715 3.08073 10.3583 2.9962C10.4005 2.95394 10.4474 2.91167 10.499 2.87175C10.5483 2.83184 10.6022 2.79192 10.6679 2.7567Z" fill="#007FFF"/>
<path d="M11.8943 1.45822C11.9342 1.52162 11.9623 1.58267 11.9858 1.64372C12.0092 1.70477 12.0303 1.76347 12.0468 1.81982C12.0796 1.93488 12.1007 2.04993 12.1101 2.16029C12.1288 2.38101 12.1101 2.59233 12.0608 2.79661C12.0116 3.0009 11.9318 3.19813 11.8146 3.38598C11.756 3.4799 11.6856 3.57147 11.6035 3.65835C11.5613 3.70296 11.5168 3.74523 11.4675 3.78749C11.4183 3.82976 11.3643 3.86968 11.301 3.90959C11.2611 3.8462 11.233 3.78515 11.2072 3.7241C11.1837 3.66305 11.1626 3.60435 11.1462 3.54799C11.1134 3.43059 11.0923 3.31788 11.0829 3.20752C11.0641 2.98681 11.0829 2.77548 11.1321 2.5712C11.1814 2.36692 11.2611 2.16968 11.3807 1.98184C11.4394 1.88792 11.5097 1.79634 11.5918 1.70946C11.634 1.66485 11.6786 1.62259 11.7278 1.58032C11.7771 1.53806 11.831 1.49814 11.8943 1.45822Z" fill="#007FFF"/>
<path d="M17.361 7.5209C17.2976 7.48333 17.2343 7.45515 17.1757 7.43167C17.1147 7.40819 17.0561 7.38941 16.9975 7.37532C16.8802 7.34479 16.7676 7.32601 16.6574 7.31897C16.437 7.30488 16.2259 7.32836 16.0219 7.38236C15.8178 7.43637 15.6232 7.51855 15.4403 7.643C15.3488 7.70405 15.2573 7.77684 15.1729 7.86137C15.1307 7.90363 15.0885 7.95059 15.0463 7.9999C15.0064 8.05156 14.9665 8.10556 14.929 8.16896C14.9923 8.20653 15.0557 8.23471 15.1166 8.25819C15.1776 8.28167 15.2362 8.30045 15.2949 8.31689C15.4121 8.34742 15.5247 8.3662 15.6349 8.37324C15.8554 8.38733 16.0664 8.36385 16.2705 8.30985C16.4721 8.25584 16.6691 8.17131 16.8521 8.04921C16.9435 7.98816 17.035 7.91537 17.1194 7.83084C17.1616 7.78858 17.2038 7.74162 17.2461 7.69231C17.2836 7.64065 17.3234 7.58665 17.361 7.5209Z" fill="#007FFF"/>
<path d="M14.2911 6.16373C14.2184 6.14495 14.1528 6.1379 14.0871 6.13321C14.0214 6.12851 13.9605 6.12851 13.8995 6.12851C13.7799 6.13321 13.665 6.14729 13.5571 6.17312C13.3413 6.22243 13.1467 6.30696 12.9661 6.41497C12.7879 6.52533 12.6237 6.66152 12.483 6.83293C12.4126 6.91746 12.347 7.01373 12.2883 7.11939C12.2602 7.1734 12.2321 7.2274 12.2063 7.28845C12.1828 7.3495 12.1594 7.4129 12.1429 7.48569C12.2156 7.50447 12.2813 7.51152 12.347 7.51621C12.4126 7.52091 12.4736 7.52326 12.5346 7.52091C12.6542 7.51621 12.7691 7.50212 12.877 7.4763C13.0927 7.42699 13.2874 7.34245 13.4656 7.2321C13.6439 7.12174 13.8057 6.98555 13.9487 6.81414C14.0191 6.72961 14.0847 6.63334 14.1434 6.52768C14.1715 6.47367 14.1997 6.41967 14.2255 6.35862C14.2513 6.29992 14.2747 6.23652 14.2911 6.16373Z" fill="#007FFF"/>
<path d="M14.5397 4.00116C14.4647 4.00351 14.399 4.01525 14.3357 4.02934C14.2724 4.04342 14.2114 4.05986 14.1551 4.07865C14.0402 4.11621 13.9347 4.16318 13.8385 4.21718C13.6439 4.32519 13.4797 4.45903 13.339 4.614C13.1983 4.76897 13.0787 4.94508 12.9919 5.14936C12.9473 5.25033 12.9122 5.36068 12.884 5.47809C12.8699 5.53679 12.8606 5.59784 12.8535 5.66358C12.8465 5.72933 12.8418 5.79508 12.8465 5.87021C12.9215 5.86787 12.9872 5.85613 13.0505 5.84439C13.1138 5.8303 13.1748 5.81386 13.2311 5.79507C13.346 5.75751 13.4515 5.71055 13.5477 5.65654C13.7423 5.54853 13.9042 5.41469 14.0472 5.25737C14.1879 5.1024 14.3052 4.92395 14.3943 4.72201C14.4389 4.62105 14.474 4.51069 14.5022 4.39328C14.5163 4.33458 14.5256 4.27354 14.5327 4.20779C14.5374 4.14439 14.5421 4.0763 14.5397 4.00116Z" fill="#007FFF"/>
<path d="M16.641 4.11153C16.5659 4.09979 16.5003 4.09744 16.4346 4.09979C16.3689 4.09979 16.308 4.10448 16.247 4.11387C16.1274 4.12796 16.0148 4.15379 15.9093 4.18901C15.6982 4.25711 15.5106 4.35807 15.3418 4.48252C15.1729 4.60697 15.0228 4.75724 14.8962 4.94039C14.8328 5.03197 14.7766 5.13293 14.7273 5.24329C14.7039 5.29964 14.6804 5.356 14.6616 5.41939C14.6429 5.48279 14.6265 5.54619 14.6147 5.62133C14.6898 5.63307 14.7555 5.63542 14.8211 5.63542C14.8868 5.63542 14.9478 5.63072 15.0087 5.62368C15.1283 5.60959 15.2409 5.58376 15.3464 5.54854C15.5575 5.48044 15.7451 5.37948 15.9116 5.25268C16.0805 5.12589 16.2306 4.97561 16.3549 4.79246C16.4182 4.70089 16.4745 4.59992 16.5237 4.48956C16.5472 4.43321 16.5706 4.37686 16.5894 4.31346C16.6152 4.25006 16.6316 4.18667 16.641 4.11153Z" fill="#E52D8A"/>
<path d="M13.6321 0.857117C13.5618 0.882945 13.5008 0.911123 13.4445 0.943995C13.3882 0.97452 13.3343 1.00974 13.285 1.04261C13.1865 1.11306 13.0998 1.18819 13.0224 1.26803C12.8676 1.42769 12.7503 1.6038 12.6612 1.79399C12.5721 1.98418 12.5111 2.18846 12.4853 2.40683C12.4736 2.51719 12.4713 2.63225 12.4806 2.752C12.4853 2.81305 12.4924 2.8741 12.5064 2.9375C12.5182 3.00089 12.5346 3.06664 12.5604 3.13708C12.6307 3.11125 12.6917 3.08307 12.748 3.05255C12.8043 3.02202 12.8582 2.9868 12.9075 2.95393C13.006 2.88349 13.0927 2.80835 13.1701 2.72852C13.3249 2.56885 13.4398 2.3904 13.5289 2.20021C13.6181 2.01001 13.679 1.80573 13.7048 1.58501C13.7166 1.47466 13.7189 1.3596 13.7119 1.23985C13.7072 1.1788 13.7001 1.11775 13.6884 1.05435C13.6743 0.993303 13.6579 0.927558 13.6321 0.857117Z" fill="#E52D8A"/>
<path d="M18.9064 8.67614C18.8501 8.62683 18.7962 8.58691 18.7423 8.55169C18.6883 8.51647 18.6344 8.48595 18.5781 8.46012C18.4702 8.40611 18.3623 8.3662 18.2545 8.33802C18.041 8.27932 17.83 8.26053 17.6189 8.27227C17.4102 8.28401 17.2015 8.32628 16.9951 8.41081C16.8919 8.45307 16.7911 8.50473 16.6879 8.57048C16.6363 8.60335 16.587 8.64092 16.5378 8.68084C16.4885 8.7231 16.4369 8.76771 16.3877 8.82407C16.444 8.87337 16.4979 8.91329 16.5519 8.94852C16.6058 8.98374 16.6597 9.01426 16.716 9.04009C16.8239 9.09409 16.9318 9.13401 17.0397 9.16219C17.2531 9.22089 17.4641 9.23967 17.6752 9.22558C17.8839 9.2115 18.0926 9.16923 18.299 9.0847C18.4022 9.04243 18.503 8.99078 18.6062 8.92503C18.6578 8.89216 18.7071 8.85459 18.7563 8.81467C18.8079 8.77711 18.8572 8.73249 18.9064 8.67614Z" fill="#E52D8A"/>
<path d="M17.837 5.80212C18.0317 5.92891 18.0903 6.18955 17.9637 6.38443L17.9261 6.44549L17.9871 6.48306C18.1818 6.60985 18.2404 6.87048 18.1138 7.06537C17.9871 7.26026 17.7268 7.31896 17.5322 7.19217L17.4712 7.1546L16.7629 6.69673L17.0303 6.28112L17.2202 5.98527L17.2578 5.92422C17.3797 5.73168 17.64 5.67532 17.837 5.80212Z" fill="#F41690"/>
<path d="M14.0895 2.11332C14.3169 2.06636 14.5397 2.21194 14.5866 2.44205L14.6007 2.51249L14.6711 2.4984C14.8985 2.45144 15.1213 2.59702 15.1682 2.82713C15.2151 3.05489 15.0697 3.27796 14.8399 3.32492L14.7696 3.33901L13.944 3.51041L13.8432 3.02671L13.7729 2.6839L13.7588 2.61346C13.7142 2.38335 13.862 2.16028 14.0895 2.11332Z" fill="#F41690"/>
<path d="M9.5445 1.1201C9.73681 0.988611 9.99947 1.04027 10.1308 1.23281L10.1707 1.29151L10.2293 1.25159C10.4216 1.1201 10.6843 1.17176 10.8156 1.3643C10.9469 1.55684 10.8953 1.81982 10.703 1.95131L10.6444 1.99123L9.94552 2.46319L9.6688 2.05463L9.4718 1.76347L9.43193 1.70477C9.3006 1.51223 9.3522 1.24924 9.5445 1.1201Z" fill="#F41690"/>
<path d="M11.8052 3.8462C12.0187 3.81332 12.2203 3.95891 12.2532 4.17493L12.2626 4.24067L12.3282 4.23128C12.5416 4.19841 12.7433 4.34399 12.7761 4.56001C12.809 4.77368 12.6636 4.97561 12.4478 5.00849L12.3822 5.01788L11.6059 5.13998L11.5355 4.68446L11.4863 4.36042L11.4769 4.29468C11.4441 4.081 11.5918 3.87907 11.8052 3.8462Z" fill="#F41690"/>
<path d="M14.7226 7.70875C14.8657 7.8919 14.8329 8.15723 14.6499 8.30046L14.5936 8.34507L14.6382 8.40143C14.7813 8.58458 14.7484 8.8499 14.5655 8.99314C14.3826 9.13637 14.1176 9.1035 13.9745 8.92035L13.93 8.864L13.4117 8.1995L13.801 7.89659L14.0777 7.68057L14.134 7.63596C14.3122 7.49273 14.5772 7.5256 14.7226 7.70875Z" fill="#F41690"/>
<path d="M15.7475 6.04632C15.8999 6.16373 15.9304 6.3821 15.8131 6.53707L15.778 6.58403L15.8249 6.61925C15.9773 6.73665 16.0078 6.95502 15.8905 7.10999C15.7733 7.26262 15.5552 7.29314 15.4004 7.17574L15.3535 7.14052L14.7977 6.71552L15.0463 6.39149L15.2221 6.16138L15.2573 6.11442C15.3746 5.95944 15.5927 5.92892 15.7475 6.04632Z" fill="#F41690"/>
<path d="M7.44323 2.25187C7.51593 2.13916 7.66602 2.10394 7.77859 2.17673L7.81377 2.19786L7.83487 2.16264C7.90757 2.04994 8.05767 2.01471 8.17023 2.0875C8.2828 2.16029 8.31798 2.31057 8.24528 2.42328L8.22417 2.4585L7.96386 2.86941L7.7223 2.71678L7.55111 2.60877L7.51593 2.58764C7.40336 2.5172 7.37053 2.36692 7.44323 2.25187Z" fill="#F41690"/>
<path d="M7.47372 7.72988L7.34473 7.59134C7.31894 7.59134 7.29548 7.61013 7.27438 7.65709C7.22044 7.76041 7.17119 7.86841 7.1196 7.97408C7.08911 8.03043 7.11491 8.08444 7.13367 8.14079C7.20402 8.33568 7.12898 8.52118 6.93667 8.59631C6.84756 8.63154 6.81472 8.68319 6.81003 8.77007C6.803 8.86164 6.79127 8.95322 6.78189 9.04714C6.77486 9.13872 6.73499 9.17159 6.64822 9.12463C6.58255 9.09175 6.51689 9.06123 6.45122 9.02836C6.08303 8.8499 6.11821 8.87808 6.3879 8.62214C6.46998 8.54701 6.50985 8.47656 6.48171 8.35681C6.43715 8.17132 6.54034 8.00226 6.72092 7.9459C6.81941 7.91538 6.88039 7.86372 6.92026 7.77214C6.97185 7.65474 7.02579 7.53969 7.08676 7.42933C7.12194 7.36593 7.12429 7.31192 7.10084 7.25792L7.47372 7.72988Z" fill="#EA3B82"/>
<path d="M7.52296 7.79327L7.34473 7.59134L7.47371 7.72988L7.52296 7.79327Z" fill="#E52D8A"/>
<path d="M6.82875 8.6832C7.04376 8.6832 7.21805 8.50869 7.21805 8.29342C7.21805 8.07815 7.04376 7.90364 6.82875 7.90364C6.61375 7.90364 6.43945 8.07815 6.43945 8.29342C6.43945 8.50869 6.61375 8.6832 6.82875 8.6832Z" fill="#007FFF"/>
<path d="M8.78704 33.0138H13.2007C13.0435 26.559 12.9661 20.2028 13.067 19.071C13.2804 16.6924 14.4155 11.1557 14.4155 10.7448C14.4155 10.7448 14.5444 10.1695 14.0637 10.031C13.5806 9.89479 13.4375 10.6063 13.4375 10.6063C13.1983 11.6464 12.3611 16.4506 12.1735 16.885C11.9859 17.3193 11.5661 17.7937 10.9282 17.9768C10.2903 18.16 9.43665 18.174 8.78469 17.4109C8.13273 16.6478 6.27301 12.6843 6.10181 12.318C5.93061 11.9517 5.57884 11.6441 5.23644 11.9376C4.89405 12.2311 5.17312 12.7524 5.17312 12.7524C6.36916 14.8515 7.77627 17.9533 8.33911 20.8579C8.63226 22.363 8.74952 27.5264 8.78704 33.0138Z" fill="#E52D8A"/>
<path d="M10.3207 17.6222C11.1678 17.6222 11.8545 16.8853 11.8545 15.9762C11.8545 15.0672 11.1678 14.3303 10.3207 14.3303C9.47367 14.3303 8.78699 15.0672 8.78699 15.9762C8.78699 16.8853 9.47367 17.6222 10.3207 17.6222Z" fill="#E52D8A"/>
</svg>
