<svg width="113" height="113" viewBox="0 0 113 113" fill="none" xmlns="http://www.w3.org/2000/svg">
<path d="M62.4686 51.1325C62.9376 51.2263 73.261 60.5708 73.261 60.5708C73.261 60.5708 74.8567 79.0039 79.2675 85.2907L64.8147 94.3936L62.4686 83.6012C62.4686 83.6012 50.3631 84.0702 49.1426 75.9064L49.7054 58.7335L52.9894 48.3174L62.4686 51.1325Z" fill="#B0D7FF"/>
<path d="M53.4375 67.3076L54.2927 65.084" stroke="#54A9FF" stroke-width="0.220703" stroke-miterlimit="10"/>
<path d="M46.5148 68.3994C46.5148 68.3994 42.744 77.179 51.6163 78.7217C58.8708 79.983 55.4091 72.8102 55.4091 72.8102L46.5148 68.3994Z" fill="#B0D7FF"/>
<path d="M82.5882 56.2018C85.8104 56.2018 88.4225 53.5897 88.4225 50.3675C88.4225 47.1453 85.8104 44.5332 82.5882 44.5332C79.366 44.5332 76.7539 47.1453 76.7539 50.3675C76.7539 53.5897 79.366 56.2018 82.5882 56.2018Z" fill="#007FFF"/>
<path d="M41.8872 57.9404L39.7266 66.8381C39.7266 66.8381 42.4677 68.7284 44.6825 67.5498C45.5377 67.0941 46.1192 66.251 46.2925 65.2976L47.4942 58.6875L41.8872 57.9404Z" fill="#B0D7FF"/>
<path d="M46.5148 68.3994C46.5148 68.3994 42.744 77.179 51.6163 78.7217C58.8708 79.983 55.4091 72.8102 55.4091 72.8102" fill="#B0D7FF"/>
<path d="M46.5148 68.3994C46.5148 68.3994 42.744 77.179 51.6163 78.7217C58.8708 79.983 55.4091 72.8102 55.4091 72.8102" stroke="#54A9FF" stroke-width="0.220703" stroke-miterlimit="10"/>
<path d="M45.5755 62.4873C45.5755 62.4873 42.948 73.7487 55.6164 74.3115C55.6164 74.3115 59.3705 72.8096 57.212 68.3999L50.6748 65.9601" fill="#B0D7FF"/>
<path d="M45.5755 62.4873C45.5755 62.4873 42.948 73.7487 55.6164 74.3115C55.6164 74.3115 59.3705 72.8096 57.212 68.3999L50.6748 65.9601" stroke="#54A9FF" stroke-width="0.220703" stroke-miterlimit="10"/>
<path d="M58.6944 64.8975L48.3721 67.1718C32.8291 54.6436 27.6426 28.5543 27.6426 28.5543L37.8667 25.6123C37.9373 26.3671 38.0278 27.2565 38.1447 28.2618C39.0662 36.2061 41.6021 51.3551 48.243 63.7719C48.6381 64.5123 49.0486 65.2429 49.4745 65.9623L58.6944 64.8975Z" fill="#B0D7FF"/>
<path d="M74.1466 19.4759C74.1466 19.4759 64.1709 45.8058 64.5273 64.2235L58.7007 64.8955L58.6952 64.8966L49.4742 65.9615C49.4742 65.9615 45.7322 51.0895 47.0895 34.4429C47.4548 29.9571 48.1908 25.34 49.4698 20.8531C49.7336 19.9284 50.0205 19.0092 50.3317 18.0977L74.1466 19.4759Z" fill="#54A9FF"/>
<path d="M51.1122 23.5111C51.1122 23.5111 53.114 24.0949 53.8236 21.5723L68.2156 22.5555C68.2156 22.5555 67.6186 24.4977 69.9647 25.0969C69.9647 25.0969 60.5694 52.6362 63.7287 62.4873L51.6154 64.0819C51.6154 64.0819 51.9255 62.2048 49.9933 61.9256C49.9933 61.9267 46.4521 44.532 51.1122 23.5111Z" fill="#007FFF"/>
<path d="M49.4735 65.9608C41.0073 51.6615 38.5233 32.6865 37.8667 25.613C37.7001 23.8264 37.6504 22.7979 37.6504 22.7979L49.4701 20.8535C49.1446 21.9957 48.8544 23.1455 48.5973 24.2998C47.8403 27.6821 47.3613 31.0986 47.0899 34.4433C46.2181 45.1353 47.4496 55.0956 48.4428 60.8526C48.9857 64.001 49.4569 65.8924 49.4735 65.9608Z" fill="#54A9FF"/>
<path d="M48.4432 60.8522C46.2517 56.4403 41.4635 45.0531 39.7266 26.9213C39.7266 26.9213 41.3951 26.8473 41.3951 25.0961L48.7048 23.8281C47.9478 27.2104 47.3618 31.0981 47.0903 34.4428C46.2185 45.1348 47.4501 55.0951 48.4432 60.8522Z" fill="#54A9FF"/>
<path d="M67.1606 64.551C64.1293 61.6201 61.0438 58.0447 57.901 53.7598C57.901 53.7598 52.7818 55.393 53.8655 59.6713C54.6037 62.5857 57.1274 65.2639 59.3543 67.1487" fill="#B0D7FF"/>
<path d="M58.4283 66.2412C57.6404 68.8632 56.6837 74.3112 61.7896 77.7321L58.4283 66.2412Z" fill="#B0D7FF"/>
<path d="M58.4283 66.2412C57.6404 68.8632 56.6837 74.3112 61.7896 77.7321" stroke="#54A9FF" stroke-width="0.220703" stroke-miterlimit="10"/>
<path d="M81.7366 55.2086C84.9588 55.2086 87.5709 52.5965 87.5709 49.3743C87.5709 46.1521 84.9588 43.54 81.7366 43.54C78.5144 43.54 75.9023 46.1521 75.9023 49.3743C75.9023 52.5965 78.5144 55.2086 81.7366 55.2086Z" fill="#54A9FF"/>
<path d="M85.3866 46.249C87.0628 48.2166 86.7869 51.3076 84.8094 52.9584C83.4025 54.1932 81.2583 54.4625 79.581 53.6238C77.2106 52.485 76.1998 49.5165 77.3938 47.1672C78.9387 44.0552 83.1762 43.594 85.3866 46.249ZM85.2608 46.3572C84.0701 44.9756 82.0407 44.4426 80.3237 45.0418C77.2471 46.0471 76.1325 49.905 78.2104 52.3967C80.3512 54.9723 84.4398 54.5044 85.9405 51.5084C86.7825 49.8553 86.4989 47.7322 85.2608 46.3572Z" fill="#007FFF"/>
<path d="M78.1359 49.8145C77.6702 47.911 79.1335 45.928 81.0558 45.6808C81.6793 45.5903 82.3249 45.6741 82.8821 45.9302C82.284 45.8033 81.676 45.7999 81.1022 45.9302C79.3134 46.323 78.0951 47.9982 78.1359 49.8145Z" fill="#007FFF"/>
<path d="M30.1116 73.0914C33.3338 73.0914 35.9459 70.4793 35.9459 67.2571C35.9459 64.035 33.3338 61.4229 30.1116 61.4229C26.8894 61.4229 24.2773 64.035 24.2773 67.2571C24.2773 70.4793 26.8894 73.0914 30.1116 73.0914Z" fill="#007FFF"/>
<path d="M31.4085 72.9225C34.6307 72.9225 37.2428 70.3104 37.2428 67.0882C37.2428 63.866 34.6307 61.2539 31.4085 61.2539C28.1863 61.2539 25.5742 63.866 25.5742 67.0882C25.5742 70.3104 28.1863 72.9225 31.4085 72.9225Z" fill="#54A9FF"/>
<path d="M32.0287 71.8515C29.4641 72.1781 27.0276 70.2558 26.7274 67.6978C26.4637 65.845 27.4105 63.9017 29.0304 62.9571C31.2794 61.5954 34.3185 62.3734 35.6317 64.6576C37.3929 67.6537 35.4606 71.4542 32.0287 71.8515ZM32.0077 71.687C33.8164 71.4454 35.3712 70.0384 35.8093 68.2739C36.6513 65.1476 34.0316 62.1052 30.8082 62.4815C27.4811 62.8644 25.6371 66.5436 27.3244 69.4381C28.247 71.047 30.1792 71.9706 32.0077 71.687Z" fill="#007FFF"/>
<path d="M33.0098 63.832C34.8582 64.4831 35.7178 66.7939 34.8725 68.5374C34.6077 69.109 34.1839 69.6034 33.6642 69.929C34.0978 69.4975 34.4333 68.991 34.6375 68.4392C35.2896 66.7332 34.5503 64.7866 33.0098 63.832Z" fill="#007FFF"/>
<path d="M49.0941 94.9615C52.3162 94.9615 54.9283 92.3494 54.9283 89.1273C54.9283 85.9051 52.3162 83.293 49.0941 83.293C45.8719 83.293 43.2598 85.9051 43.2598 89.1273C43.2598 92.3494 45.8719 94.9615 49.0941 94.9615Z" fill="#007FFF"/>
<path d="M48.3167 93.9117C51.5389 93.9117 54.151 91.2996 54.151 88.0775C54.151 84.8553 51.5389 82.2432 48.3167 82.2432C45.0945 82.2432 42.4824 84.8553 42.4824 88.0775C42.4824 91.2996 45.0945 93.9117 48.3167 93.9117Z" fill="#54A9FF"/>
<path d="M52.1745 85.2166C53.7084 87.2978 53.2151 90.3612 51.1273 91.8686C49.6364 93.0019 47.479 93.1189 45.8646 92.1643C43.5803 90.8622 42.7814 87.8297 44.1365 85.5697C45.8966 82.5737 50.1573 82.4126 52.1745 85.2166ZM52.0421 85.3148C50.9507 83.8527 48.9644 83.1795 47.2098 83.6551C44.0692 84.4419 42.6865 88.2115 44.5845 90.8434C46.5388 93.5636 50.6505 93.3837 52.3577 90.5002C53.3133 88.9112 53.1798 86.7737 52.0421 85.3148Z" fill="#007FFF"/>
<path d="M44.6914 88.2637C44.3637 86.3271 45.9561 84.461 47.8949 84.3451C48.5228 84.2988 49.1607 84.4279 49.6992 84.7225C49.111 84.5537 48.5052 84.5085 47.9236 84.5978C46.1117 84.8627 44.7786 86.4484 44.6914 88.2637Z" fill="#007FFF"/>
<path d="M63.7292 60.9801L67.16 64.551C64.1286 61.6201 61.0432 58.0447 57.9004 53.7598" stroke="#54A9FF" stroke-width="0.220703" stroke-miterlimit="10"/>
<path d="M57.0977 65.0117C57.5313 65.4774 57.9805 65.9188 58.4296 66.3326" stroke="#54A9FF" stroke-width="0.220703" stroke-miterlimit="10"/>
<path d="M48.5764 64.3842L47.495 64.5508C47.495 64.5508 34.1303 51.2833 31.0625 33.0786C31.0625 33.0786 33.7209 33.1415 32.72 29.7625L38.146 28.2617C39.0674 36.2059 41.9354 51.9674 48.5764 64.3842Z" fill="#54A9FF"/>
</svg>
