<svg width="58" height="37" viewBox="0 0 58 37" fill="none" xmlns="http://www.w3.org/2000/svg">
<g clip-path="url(#clip0_624_30215)">
<rect width="58" height="37" fill="white"/>
<path d="M-0.00390625 0H57.993V37H-0.00390625V0Z" fill="#009ADA"/>
<path d="M10.4692 20.3628C10.637 20.2652 10.8352 20.1963 11.0639 20.1532C11.2926 20.111 11.5081 20.0895 11.7134 20.0895C11.9167 20.0895 12.1302 20.111 12.3528 20.1532C12.5754 20.1963 12.7705 20.2652 12.9383 20.3628V21.11C12.9383 21.3166 13.0023 21.5325 13.1283 21.7575C13.2544 21.9816 13.4434 22.1892 13.6955 22.3773C13.9486 22.5654 14.2607 22.7206 14.6327 22.8418C15.0058 22.9631 15.4378 23.0238 15.9308 23.0238C16.6636 23.0238 17.2054 22.8932 17.553 22.6322C17.9017 22.3701 18.0765 22.0278 18.0765 21.6023C18.0765 20.849 17.4992 20.3022 16.3455 19.962L13.9842 19.2693C13.5512 19.148 13.1375 18.9897 12.74 18.7955C12.3436 18.6012 11.995 18.3587 11.6951 18.0668C11.3942 17.7749 11.1543 17.4255 10.9744 17.0185C10.7935 16.6115 10.703 16.1222 10.703 15.5518C10.703 14.8581 10.8392 14.2599 11.1096 13.7553C11.379 13.2506 11.7276 12.8323 12.1546 12.4973C12.5815 12.1643 13.0562 11.9176 13.5786 11.7603C14.1011 11.6021 14.6154 11.5229 15.1206 11.5229C15.8769 11.5229 16.5051 11.635 17.0041 11.86C17.5022 12.0851 17.8844 12.3739 18.1487 12.7265V11.9967C18.3164 11.8991 18.5085 11.8302 18.725 11.7871C18.9415 11.7439 19.1459 11.7233 19.338 11.7233C19.5301 11.7233 19.7374 11.7439 19.9601 11.7871C20.1827 11.8302 20.3768 11.8991 20.5455 11.9967V16.2435C20.3768 16.3412 20.1827 16.41 19.9601 16.4532C19.7374 16.4963 19.524 16.5169 19.3207 16.5169C19.1154 16.5169 18.8999 16.4963 18.6712 16.4532C18.4425 16.41 18.2442 16.3412 18.0765 16.2435V15.8057C18.0765 15.5631 18.0247 15.3288 17.923 15.1047C17.8204 14.8797 17.6669 14.6792 17.4636 14.5035C17.2593 14.3267 16.995 14.1838 16.6707 14.0749C16.3455 13.966 15.9673 13.9105 15.5343 13.9105C15.1491 13.9105 14.8228 13.9711 14.5524 14.0924C14.282 14.2147 14.0676 14.373 13.912 14.5662C13.7433 14.7738 13.6599 15.0163 13.6599 15.2959C13.6599 15.5518 13.7413 15.7872 13.9029 16.0061C14.0655 16.226 14.3928 16.4018 14.8858 16.5354L17.121 17.1737C17.674 17.3319 18.1934 17.5169 18.6803 17.7287C19.1672 17.9414 19.5931 18.2086 19.9601 18.5313C20.327 18.853 20.6147 19.2457 20.8251 19.7071C21.0355 20.1686 21.1402 20.7339 21.1402 21.4009C21.1402 22.1183 20.9989 22.7329 20.7173 23.2427C20.4347 23.7535 20.0617 24.1718 19.5992 24.4997C19.1367 24.8285 18.6173 25.069 18.0399 25.2201C17.4636 25.3722 16.8862 25.4473 16.3099 25.4473C15.577 25.4473 14.895 25.3291 14.2637 25.0927C13.6325 24.8563 13.1609 24.5243 12.8488 24.0988V24.956C12.6801 25.0536 12.4849 25.1235 12.2623 25.1657C12.0397 25.2078 11.8333 25.2294 11.6412 25.2294C11.4481 25.2294 11.2468 25.2078 11.0364 25.1657C10.826 25.1235 10.637 25.0536 10.4692 24.956V20.3628Z" fill="white"/>
<path d="M30.2849 19.2875L28.9513 14.4025L27.5272 19.2875H30.2849ZM23.5253 22.8971L27.2212 11.6871H30.8978L34.4494 22.8971H35.4587C35.5187 23.0903 35.5634 23.2825 35.5939 23.4706C35.6234 23.6587 35.6387 23.8385 35.6387 24.0081C35.6387 24.1787 35.6234 24.3606 35.5939 24.5549C35.5634 24.7502 35.5187 24.9444 35.4587 25.1387H30.2127C30.1528 24.9681 30.108 24.7892 30.0775 24.6001C30.047 24.412 30.0328 24.2394 30.0328 24.0811C30.0328 23.9228 30.047 23.7532 30.0775 23.5713C30.108 23.3884 30.1528 23.2126 30.2127 23.042H31.2943L30.8084 21.3297H26.9498L26.4274 23.042H27.5272C27.5872 23.2126 27.6319 23.3884 27.6624 23.5713C27.6919 23.7532 27.7071 23.9228 27.7071 24.0811C27.7071 24.2394 27.6919 24.412 27.6624 24.6001C27.6319 24.7892 27.5872 24.9681 27.5272 25.1387H22.4255C22.3655 24.9444 22.3208 24.7502 22.2903 24.5549C22.2598 24.3606 22.2456 24.1787 22.2456 24.0081C22.2456 23.8385 22.2598 23.6587 22.2903 23.4706C22.3208 23.2825 22.3655 23.0903 22.4255 22.8971H23.5253Z" fill="white"/>
<path d="M39.7413 22.8951V14.1457H37.7764V16.2793C37.6077 16.3759 37.4064 16.4458 37.1727 16.488C36.9379 16.5311 36.7254 16.5527 36.5333 16.5527C36.3402 16.5527 36.1338 16.5311 35.9112 16.488C35.6886 16.4458 35.4934 16.3759 35.3247 16.2793V11.8496H47.2042V16.2793C47.0355 16.3759 46.8342 16.4458 46.6005 16.488C46.3656 16.5311 46.1532 16.5527 45.9611 16.5527C45.768 16.5527 45.5606 16.5311 45.339 16.488C45.1164 16.4458 44.9212 16.3759 44.7525 16.2793V14.1457H42.7877V22.8951H43.9779C44.0379 23.0894 44.0826 23.2806 44.1131 23.4686C44.1426 23.6577 44.1579 23.8366 44.1579 24.0072C44.1579 24.1778 44.1426 24.3587 44.1131 24.5529C44.0826 24.7482 44.0379 24.9425 43.9779 25.1367H38.552C38.491 24.9425 38.4463 24.7482 38.4168 24.5529C38.3863 24.3587 38.3721 24.1778 38.3721 24.0072C38.3721 23.8366 38.3863 23.6577 38.4168 23.4686C38.4463 23.2806 38.491 23.0894 38.552 22.8951H39.7413Z" fill="white"/>
<path d="M49.8218 12.9153C49.8929 12.9153 49.9478 12.8958 49.9844 12.8557C50.022 12.8156 50.0403 12.7632 50.0403 12.6975C50.0403 12.6378 50.023 12.5895 49.9864 12.5515C49.9509 12.5125 49.899 12.494 49.8319 12.494H49.5931V12.9153H49.8218ZM49.3237 13.5474V12.4826H49.219C49.2098 12.4518 49.2048 12.4271 49.2027 12.4117C49.1997 12.3963 49.1997 12.3799 49.1997 12.3634C49.1997 12.3521 49.1997 12.3388 49.2027 12.3233C49.2048 12.3069 49.2098 12.2843 49.219 12.2514H49.8756C49.9448 12.2514 50.0088 12.2637 50.0678 12.2863C50.1257 12.3079 50.1755 12.3408 50.2172 12.3809C50.2588 12.422 50.2904 12.4693 50.3127 12.5238C50.3351 12.5782 50.3463 12.6358 50.3463 12.6975C50.3463 12.7704 50.33 12.8475 50.2965 12.9266C50.2619 13.0078 50.1968 13.0716 50.1003 13.1188L50.2924 13.5474H50.4001C50.4113 13.5803 50.4174 13.6029 50.4184 13.6204C50.4205 13.6358 50.4205 13.6512 50.4205 13.6666C50.4205 13.679 50.4195 13.6913 50.4174 13.7057C50.4154 13.7211 50.4083 13.7427 50.3971 13.7725H50.0779L49.8116 13.1569H49.5931V13.5474H49.7211C49.7293 13.5803 49.7354 13.6029 49.7374 13.6204C49.7394 13.6358 49.7404 13.6512 49.7404 13.6666C49.7404 13.679 49.7394 13.6923 49.7374 13.7078C49.7354 13.7232 49.7283 13.7468 49.7171 13.7766H49.219C49.2098 13.7468 49.2048 13.7232 49.2027 13.7078C49.1997 13.6923 49.1997 13.679 49.1997 13.6666C49.1997 13.6512 49.1997 13.6358 49.2027 13.6204C49.2048 13.6029 49.2098 13.5803 49.219 13.5474H49.3237ZM49.7842 14.0284C49.9193 14.0284 50.0454 14.0027 50.1633 13.9503C50.2812 13.9 50.3839 13.8301 50.4713 13.7396C50.5587 13.6512 50.6268 13.5443 50.6766 13.421C50.7254 13.2966 50.7498 13.161 50.7498 13.014C50.7498 12.8711 50.7254 12.7386 50.6766 12.6152C50.6268 12.494 50.5587 12.3871 50.4713 12.2976C50.3839 12.2082 50.2812 12.1373 50.1633 12.087C50.0454 12.0356 49.9193 12.0099 49.7842 12.0099C49.6479 12.0099 49.5199 12.0356 49.4009 12.087C49.282 12.1373 49.1794 12.2082 49.0919 12.2976C49.0035 12.3871 48.9354 12.494 48.8856 12.6152C48.8368 12.7386 48.8124 12.8711 48.8124 13.014C48.8124 13.161 48.8368 13.2966 48.8856 13.421C48.9354 13.5443 49.0035 13.6512 49.0919 13.7396C49.1794 13.8301 49.282 13.9 49.4009 13.9503C49.5199 14.0027 49.6479 14.0284 49.7842 14.0284ZM48.479 13.014C48.479 12.828 48.5136 12.6553 48.5837 12.497C48.6528 12.3377 48.7474 12.201 48.8653 12.0849C48.9852 11.9698 49.1234 11.8793 49.282 11.8146C49.4396 11.7498 49.6073 11.718 49.7842 11.718C49.96 11.718 50.1257 11.7498 50.2822 11.8146C50.4398 11.8793 50.578 11.9698 50.697 12.0849C50.8159 12.201 50.9094 12.3377 50.9795 12.497C51.0487 12.6553 51.0842 12.828 51.0842 13.014C51.0842 13.2021 51.0487 13.3758 50.9795 13.5361C50.9094 13.6965 50.8159 13.8342 50.697 13.9503C50.578 14.0654 50.4398 14.1559 50.2822 14.2216C50.1257 14.2874 49.96 14.3203 49.7842 14.3203C49.6073 14.3203 49.4396 14.2874 49.282 14.2216C49.1234 14.1559 48.9852 14.0654 48.8653 13.9503C48.7474 13.8342 48.6528 13.6965 48.5837 13.5361C48.5136 13.3758 48.479 13.2021 48.479 13.014Z" fill="white"/>
</g>
<defs>
<clipPath id="clip0_624_30215">
<rect width="58" height="37" fill="white"/>
</clipPath>
</defs>
</svg>
