<svg width="40" height="40" viewBox="0 0 40 40" fill="none" xmlns="http://www.w3.org/2000/svg">
<path d="M37.6008 11.3723C39.6823 15.7257 40.0775 20.6958 38.71 25.3234C37.3425 29.9509 34.3094 33.908 30.196 36.4307C26.0826 38.9535 21.1805 39.8631 16.4358 38.9841C11.6911 38.1051 7.44025 35.4997 4.50357 31.6708C1.56689 27.8419 0.152594 23.0609 0.533643 18.2506C0.914691 13.4403 3.06407 8.94159 6.56695 5.6228C10.0698 2.30401 14.6779 0.400394 19.5018 0.279342C24.3257 0.158289 29.0234 1.82838 32.6883 4.9673L36.939 0.714799C37.2204 0.433338 37.6022 0.275215 38.0002 0.275215C38.3983 0.275215 38.78 0.433338 39.0615 0.714799C39.3429 0.99626 39.5011 1.378 39.5011 1.77605C39.5011 2.17409 39.3429 2.55584 39.0615 2.8373L21.0615 20.8373C20.78 21.1188 20.3983 21.2769 20.0002 21.2769C19.6022 21.2769 19.2204 21.1188 18.939 20.8373C18.6575 20.5558 18.4994 20.1741 18.4994 19.7761C18.4994 19.378 18.6575 18.9963 18.939 18.7148L24.1365 13.5173C22.7279 12.5857 21.0461 12.1568 19.3634 12.2999C17.6807 12.4431 16.0956 13.15 14.8646 14.3062C13.6337 15.4623 12.8289 17.0001 12.5807 18.6705C12.3324 20.3409 12.6552 22.0463 13.4968 23.5104C14.3384 24.9746 15.6495 26.1118 17.2178 26.7381C18.7862 27.3644 20.52 27.4431 22.1386 26.9613C23.7572 26.4796 25.1659 25.4657 26.1366 24.0838C27.1072 22.7018 27.5831 21.0327 27.4871 19.3467C27.476 19.1497 27.5038 18.9525 27.569 18.7662C27.6341 18.58 27.7353 18.4084 27.8668 18.2613C27.9982 18.1142 28.1574 17.9944 28.3351 17.9088C28.5129 17.8232 28.7057 17.7734 28.9027 17.7623C29.3005 17.7399 29.691 17.8765 29.9881 18.142C30.1352 18.2734 30.255 18.4326 30.3406 18.6103C30.4262 18.7881 30.476 18.9809 30.4871 19.1779C30.6238 21.5644 29.9422 23.9261 28.5549 25.8727C27.1675 27.8192 25.1575 29.2342 22.8571 29.8836C20.5566 30.5331 18.1034 30.3782 15.903 29.4445C13.7025 28.5108 11.8864 26.8542 10.755 24.7486C9.62356 22.6429 9.24445 20.2143 9.68033 17.864C10.1162 15.5137 11.341 13.3824 13.1522 11.8225C14.9635 10.2626 17.2527 9.36743 19.6417 9.28488C22.0306 9.20233 24.3763 9.93739 26.2908 11.3685L30.5565 7.10292C27.4305 4.50754 23.4558 3.1586 19.3958 3.31519C15.3359 3.47178 11.4769 5.12285 8.56007 7.9513C5.64326 10.7797 3.87429 14.5861 3.59292 18.6394C3.31155 22.6926 4.53762 26.7069 7.03564 29.9112C9.53366 33.1155 13.1275 35.284 17.1269 36C21.1263 36.7161 25.2492 35.9293 28.7038 33.7907C32.1585 31.6521 34.7012 28.3126 35.8436 24.4136C36.986 20.5145 36.6476 16.3308 34.8933 12.666C34.7218 12.307 34.6999 11.8945 34.8324 11.5193C34.965 11.1441 35.2412 10.837 35.6002 10.6654C35.9593 10.4939 36.3717 10.472 36.7469 10.6045C37.1221 10.7371 37.4293 11.0133 37.6008 11.3723Z" fill="#007FFF"/>
</svg>
