<svg width="12" height="11" viewBox="0 0 12 11" fill="none" xmlns="http://www.w3.org/2000/svg">
<path d="M12 1.80957C11.55 2.03457 11.1 2.10957 10.575 2.18457C11.1 1.88457 11.475 1.43457 11.625 0.83457C11.175 1.13457 10.65 1.28457 10.05 1.43457C9.6 0.98457 8.925 0.68457 8.25 0.68457C6.675 0.68457 5.475 2.18457 5.85 3.68457C3.825 3.60957 2.025 2.63457 0.75 1.13457C0.075 2.25957 0.45 3.68457 1.5 4.43457C1.125 4.43457 0.75 4.28457 0.375 4.13457C0.375 5.25957 1.2 6.30957 2.325 6.60957C1.95 6.68457 1.575 6.75957 1.2 6.68457C1.5 7.65957 2.4 8.40957 3.525 8.40957C2.625 9.08457 1.275 9.45957 0 9.30957C1.125 9.98457 2.4 10.4346 3.75 10.4346C8.325 10.4346 10.875 6.60957 10.725 3.08457C11.25 2.78457 11.7 2.33457 12 1.80957Z" fill="white"/>
</svg>
